{"accessors" : [{"bufferView" : 0, "byteOffset" : 0, "componentType" : 5123, "count" : 8040, "type" : "SCALAR", "max" : [8039], "min" : [0]}, {"bufferView" : 1, "byteOffset" : 0, "componentType" : 5126, "count" : 8040, "type" : "VEC3", "max" : [1.1879427433013916, 1.1878902912139893, 0.18163195252418518], "min" : [-1.1879427433013916, -1.1878902912139893, -0.19015227258205414], "name" : "POSITION"}, {"bufferView" : 1, "byteOffset" : 12, "componentType" : 5126, "count" : 8040, "type" : "VEC3", "max" : [1.0000044107437134, 1.0000044107437134, 1.0000044107437134], "min" : [-1.0000044107437134, -1.0000044107437134, -1.0000044107437134], "name" : "NORMAL"}, {"bufferView" : 1, "byteOffset" : 24, "componentType" : 5126, "count" : 8040, "type" : "VEC2", "max" : [1, 2], "min" : [0, 1], "name" : "TEXCOORD_0"}, {"bufferView" : 2, "byteOffset" : 0, "componentType" : 5126, "normalized" : false, "count" : 181, "type" : "SCALAR", "max" : [6], "min" : [0]}, {"bufferView" : 2, "byteOffset" : 724, "componentType" : 5126, "normalized" : false, "count" : 181, "type" : "VEC4", "max" : [7.044662186928008E-09, 0, 7.044662186928008E-09, 1], "min" : [0, -1, -7.044662186928008E-09, -1]}], "animations" : [{"channels" : [{"sampler" : 0, "target" : {"node" : 0, "path" : "rotation"}}], "samplers" : [{"input" : 4, "interpolation" : "LINEAR", "output" : 5}], "name" : "Animation_1"}], "asset" : {"generator" : "Aspose.3D 24.1.0", "version" : "2.0"}, "buffers" : [{"uri" : "data:application/octet-stream;base64,", "byteLength" : 276992}], "bufferViews" : [{"buffer" : 0, "byteOffset" : 0, "byteLength" : 16080, "target" : 34963}, {"buffer" : 0, "byteOffset" : 16084, "byteLength" : 257280, "byteStride" : 32, "target" : 34962}, {"buffer" : 0, "byteOffset" : 273368, "byteLength" : 3620}], "materials" : [{"name" : "", "pbrMetallicRoughness" : {"baseColorFactor" : [1, 1, 1, 1], "metallicFactor" : 1, "roughnessFactor" : 1}, "emissiveFactor" : [0, 0, 0], "alphaMode" : "OPAQUE", "doubleSided" : true}], "meshes" : [{"primitives" : [{"attributes" : {"POSITION" : 1, "NORMAL" : 2, "TEXCOORD_0" : 3}, "indices" : 0, "material" : 0, "mode" : 4}]}], "nodes" : [{"mesh" : 0, "rotation" : [-0, -0, -0, 1], "scale" : [1, 1, 1], "translation" : [0, 0, -0.004873954225331545], "name" : "2ALogo"}], "scene" : 0, "scenes" : [{"nodes" : [0]}]}