<svg width="146" height="19" viewBox="0 0 146 19" fill="none" xmlns="http://www.w3.org/2000/svg">
<path opacity="0.1" d="M145.52 0.100098H0.77002V18.5701H145.52V0.100098Z" fill="white"/>
<path opacity="0.2" d="M13.8601 3.15002H8.9502V15.53H13.8601V3.15002Z" fill="white"/>
<path d="M13.8601 8.26001H8.9502V15.53H13.8601V8.26001Z" fill="#6EF5FA"/>
<path opacity="0.2" d="M22.8601 3.15002H17.9502V15.53H22.8601V3.15002Z" fill="white"/>
<path d="M22.8601 6.91003H17.9502V15.53H22.8601V6.91003Z" fill="#6EF5FA"/>
<path opacity="0.2" d="M31.7001 3.14001H26.79V15.52H31.7001V3.14001Z" fill="white"/>
<path d="M31.7001 11.9H26.79V15.52H31.7001V11.9Z" fill="#6EF5FA"/>
<path opacity="0.2" d="M40.7001 3.14001H35.79V15.52H40.7001V3.14001Z" fill="white"/>
<path d="M40.7001 6H35.79V15.52H40.7001V6Z" fill="#6EF5FA"/>
<path opacity="0.2" d="M49.4901 3.14001H44.5801V15.52H49.4901V3.14001Z" fill="white"/>
<path d="M49.4901 8.25H44.5801V15.52H49.4901V8.25Z" fill="#6EF5FA"/>
<path opacity="0.2" d="M58.4901 3.14001H53.5801V15.52H58.4901V3.14001Z" fill="white"/>
<path d="M58.4901 4.37H53.5801V15.52H58.4901V4.37Z" fill="#6EF5FA"/>
<path opacity="0.2" d="M67.65 3.14001H62.74V15.52H67.65V3.14001Z" fill="white"/>
<path d="M67.65 3.13H62.74V15.52H67.65V3.13Z" fill="#6EF5FA"/>
<path opacity="0.2" d="M76.66 3.14001H71.75V15.52H76.66V3.14001Z" fill="white"/>
<path d="M76.66 6.91003H71.75V15.52H76.66V6.91003Z" fill="#6EF5FA"/>
<path opacity="0.2" d="M85.6101 3.15002H80.7002V15.53H85.6101V3.15002Z" fill="white"/>
<path d="M85.6101 11.9H80.7002V15.53H85.6101V11.9Z" fill="#6EF5FA"/>
<path opacity="0.2" d="M94.62 3.15002H89.71V15.53H94.62V3.15002Z" fill="white"/>
<path d="M94.62 4.83008H89.71V15.53H94.62V4.83008Z" fill="#6EF5FA"/>
<path opacity="0.2" d="M103.45 3.13H98.54V15.51H103.45V3.13Z" fill="white"/>
<path d="M103.45 10.6001H98.54V15.51H103.45V10.6001Z" fill="#6EF5FA"/>
<path opacity="0.2" d="M112.46 3.13H107.55V15.51H112.46V3.13Z" fill="white"/>
<path d="M112.46 4.83008H107.55V15.52H112.46V4.83008Z" fill="#6EF5FA"/>
<path opacity="0.2" d="M121.24 3.13H116.33V15.51H121.24V3.13Z" fill="white"/>
<path d="M121.24 8.23999H116.33V15.51H121.24V8.23999Z" fill="#6EF5FA"/>
<path opacity="0.2" d="M130.24 3.13H125.33V15.51H130.24V3.13Z" fill="white"/>
<path d="M130.24 3.13H125.33V15.51H130.24V3.13Z" fill="#6EF5FA"/>
<path opacity="0.2" d="M139.41 3.13H134.5V15.51H139.41V3.13Z" fill="white"/>
<path d="M139.41 13.7101H134.5V15.51H139.41V13.7101Z" fill="#6EF5FA"/>
</svg>
