<svg width="422" height="16" viewBox="0 0 422 16" fill="none" xmlns="http://www.w3.org/2000/svg">
<path opacity="0.2" d="M420.9 1.16003H0.589966V14.65H420.9V1.16003Z" stroke="white" stroke-miterlimit="10"/>
<path opacity="0.5" d="M8.55994 7.72006H26.79L30.2499 5.08006L36.27 9.69006L41.14 5.96006L46.1 9.76006L49.28 7.32006L51.4999 9.01006L54.15 6.98006H86.1099L88.2 5.38006L92.4899 8.67006L95.15 6.64006L98.5099 9.21006L104.27 4.81006L109.05 8.47006L111.61 6.50006L114.18 8.47006H146.85" stroke="#6EF5FA" stroke-width="0.6" stroke-miterlimit="10"/>
<path opacity="0.5" d="M146.55 8.44002H164.79L168.24 5.79002L174.26 10.41L179.13 6.68002L184.09 10.47L187.27 8.03002L189.49 9.73002L192.14 7.69002H224.11L226.19 6.10002L230.48 9.39002L233.14 7.35002L236.5 9.93002L242.26 5.52002L247.04 9.19002L249.61 7.22002L252.17 9.19002H284.84" stroke="#6EF5FA" stroke-width="0.6" stroke-miterlimit="10"/>
<path opacity="0.5" d="M277.66 9.2701H295.9L299.36 6.6201L305.38 11.2301L310.25 7.5001L315.2 11.3001L318.39 8.8601L320.61 10.5601L323.26 8.5201H355.22L357.3 6.9301L361.6 10.2201L364.25 8.1801L367.62 10.7601L373.37 6.3501L378.16 10.0101L380.72 8.0501L383.29 10.0101H415.96" stroke="#6EF5FA" stroke-width="0.6" stroke-miterlimit="10"/>
<path d="M14.1 0.850098H0.589966V14.3601H14.1V0.850098Z" fill="#6EF5FA"/>
<path d="M420.41 1.51001H406.9V15.02H420.41V1.51001Z" fill="#6EF5FA"/>
</svg>
